<svg xmlns="http://www.w3.org/2000/svg" xmlns:xlink="http://www.w3.org/1999/xlink" width="70" height="70" viewBox="0 0 70 70">
  <defs>
    <clipPath id="clip-PPRX_-_Logomark_1">
      <rect width="70" height="70"/>
    </clipPath>
  </defs>
  <g id="PPRX_-_Logomark_1" data-name="PPRX - Logomark – 1" clip-path="url(#clip-PPRX_-_Logomark_1)">
    <g id="Group_11" data-name="Group 11" transform="translate(-14.75 -13.2)">
      <g id="svgg" transform="translate(25.75 28.2)">
        <path id="path0" d="M66.454,65.349c-.3.012-.81.045-1.123.074a11.818,11.818,0,0,1-2.185,0l-.292-.048-.066.081c-.058.071-.083.08-.216.07a1.944,1.944,0,0,0-.55.021,1.834,1.834,0,0,0-.385.095,7.591,7.591,0,0,1-1.816.338,5.741,5.741,0,0,0-1.8.371,9.165,9.165,0,0,1-1.1.3,18.85,18.85,0,0,0-4,1.33c-.673.291-1.482.6-1.985.769a9.467,9.467,0,0,0-1.769.958c-.229.154-.54.348-.692.43a2.519,2.519,0,0,0-.446.312,3.662,3.662,0,0,1-.4.317,8.977,8.977,0,0,0-.937.733,7,7,0,0,1-.617.47l-.395.26a.2.2,0,0,1-.13.042c-.118-.045-.375.134-.632.44-.42.5-.519.576-.766.576H44v.291l-.272.221a5.861,5.861,0,0,0-1.388,1.854l-.1.188.262.428a5.874,5.874,0,0,1,.315.565.372.372,0,0,0,.189.216,3.85,3.85,0,0,1,.4.3,1.665,1.665,0,0,0,.468.3.548.548,0,0,1,.289.2c.078.108.206.165.206.092,0-.015.056-.06.124-.1a1.026,1.026,0,0,0,.24-.224c.1-.126.134-.153.227-.161s.142-.044.359-.292a7.09,7.09,0,0,1,1.051-.976c.228-.184.557-.462.731-.619A12.292,12.292,0,0,1,51.564,73.8c.759-.157,3.332-.568,3.555-.568a16.2,16.2,0,0,1-1.911,3.342,1.432,1.432,0,0,0-.134.348c-.079.294-.143.409-.253.458a.114.114,0,0,0-.075.119.145.145,0,0,1-.034.105c-.019.012-.028.075-.022.146.011.113-.009.159-.207.461A13.582,13.582,0,0,0,51.3,80.5a12.94,12.94,0,0,1-1.268,2.4,2.75,2.75,0,0,0-.414.853,15.169,15.169,0,0,1-.883,2.023A16.547,16.547,0,0,0,47.91,87.6a3.432,3.432,0,0,1-.226.512.161.161,0,0,0-.049.091c0,.024-.033.064-.074.091a.322.322,0,0,0-.112.206,9.012,9.012,0,0,1-.921,2.122,7.168,7.168,0,0,0-.842,1.927c-.1.357-.1.358-.185.35s-.206.219-.527,1.166a2.573,2.573,0,0,1-.577,1.08c-.164.178-.176.2-.17.328a.357.357,0,0,1-.08.261c-.134.191-.126.314.02.345.191.04.259.1.346.331a1.623,1.623,0,0,0,.2.36.575.575,0,0,1,.091.566c-.028.073-.024.078.06.078s.095.015.123.12c.057.211.192.177.305-.076.055-.123.069-.135.123-.107a.475.475,0,0,0,.178.032c.2,0,.256.027.256.12a.869.869,0,0,0,.047.219l.047.137.258,0a.865.865,0,0,1,.623.183l.142.107.244-.125c.288-.148.27-.146.392-.045l.1.08.07-.066c.075-.069.265-.138.265-.1,0,.014-.023.034-.051.044s-.043.027-.034.036a1.742,1.742,0,0,0,.7-.249c0-.019-.065,0-.148.039a1.174,1.174,0,0,1-.266.091l-.118.019.017-.145c.022-.194.078-.249.21-.2.287.1.483.014.759-.331a1.3,1.3,0,0,1,.471-.431.321.321,0,0,0,.138-.136.7.7,0,0,1,.19-.2.739.739,0,0,0,.185-.18c.03-.05.065-.091.078-.091.045,0,.024.072-.04.14a.135.135,0,0,0,.038.227c.172.091,1.347-1.076,1.976-1.961A9.328,9.328,0,0,0,53.4,92.2a.905.905,0,0,1,.346-.644c.332-.307.36-.359.782-1.427a4.891,4.891,0,0,1,.32-.668.959.959,0,0,0,.143-.3,1.609,1.609,0,0,1,.44-.654l.224-.236.117.155.117.155.145-.02.145-.02.073.162a1.7,1.7,0,0,0,.386.467,21.477,21.477,0,0,1,1.6,1.828l.705.853-.217-.011c-.247-.012-.313.027-.279.163.029.113.145.145.438.123.185-.014.257-.009.275.018.034.054-.318.362-.818.716a1.793,1.793,0,0,0-.523.46.87.87,0,0,1-.651.464c-.036,0-.056.039-.071.137-.012.075-.032.137-.045.137a6.57,6.57,0,0,0-.957.67,4.477,4.477,0,0,1-.942.658,2.263,2.263,0,0,0-.459.316,15.008,15.008,0,0,1-2.447,1.767,2.459,2.459,0,0,0-.588.469,3.82,3.82,0,0,1-1.075.788c-.285.146-.323.176-.332.253s-.09.14-.662.518c-.359.237-.811.544-1.006.683a5.1,5.1,0,0,1-.527.337,1.12,1.12,0,0,0-.336.267,7.153,7.153,0,0,1-2.347,1.436l-.374.149-.137.207a4.475,4.475,0,0,1-1.255,1.145,9.312,9.312,0,0,0-1.143.853.164.164,0,0,1-.112.051.159.159,0,0,0-.108.046.126.126,0,0,1-.077.046c-.09,0-.1.279-.016.365.06.06.062.06.2,0,.077-.033.337-.13.578-.217a2.353,2.353,0,0,0,.878-.429c.135-.122.326-.222.373-.193.068.042.409-.117.584-.272a.518.518,0,0,1,.5-.182c.087.015.12.011.106-.012-.039-.063.176-.238.382-.311.11-.039.324-.129.475-.2.359-.172.547-.176.731-.018.048.042.04.061-.11.263-.089.12-.23.324-.314.453-.15.234-.153.236-.283.236-.235,0-.5.178-.5.335,0,.076.217.175.431.2.093.01.25.033.349.052.2.038.251.01.22-.12-.014-.059,0-.069.07-.069a.206.206,0,0,0,.124-.037c.029-.028.037-.008.037.089,0,.137.083.2.17.13a.1.1,0,0,1,.081-.024c.02.007-.007.03-.061.052-.15.062-.13.152.066.3.352.269.6.285.871.056l.1-.08.166.063c.371.14.636.043,1.3-.475.588-.46.872-.6,1.23-.6.207,0,.217,0,.326-.116a.466.466,0,0,1,.328-.154,2.578,2.578,0,0,0,.292-.067c.123-.045-.093.162-.347.332a.8.8,0,0,0-.38.491l-.019.1h.159c.221,0,.333-.055.707-.346.611-.476.772-.555,1.077-.526.184.017.216.012.265-.041a1.6,1.6,0,0,1,.793-.362,1.664,1.664,0,0,0,.646-.256,5.481,5.481,0,0,1,.961-.524,1.459,1.459,0,0,0,.485-.306,3.614,3.614,0,0,1,1.192-.639,4.031,4.031,0,0,0,1.2-.685c.586-.433.81-.527,1.027-.43l.122.054-.168.125a2.175,2.175,0,0,1-.313.192c-.136.063-.362.271-.362.333,0,.1.194.062.575-.12a5.121,5.121,0,0,0,1.982-1.341,6.241,6.241,0,0,1,1.6-1.108.661.661,0,0,1,.189-.062.977.977,0,0,0,.317-.167,1.062,1.062,0,0,1,.478-.226.237.237,0,0,0,.127-.106,2.419,2.419,0,0,1,1.659-.517l.229.013.326.233a12.094,12.094,0,0,0,2.486,1.33A35.131,35.131,0,0,0,74,100.873c.748.21,1.382.39,1.408.4s.048,0,.048-.04c0-.145.129-.164.445-.066.2.061.215.062.313.016.113-.053.138-.111.047-.111a1.1,1.1,0,0,1-.487-.3l-.18-.163.108.022a1.129,1.129,0,0,1,.229.083.773.773,0,0,0,.526.054c.04-.033.06-.027.124.032s.121.074.376.092a3.11,3.11,0,0,1,1.085.316c.373.155.992.159.864.005a.133.133,0,0,0-.083-.048.039.039,0,0,1-.042-.034c0-.02.021-.025.054-.011a1.88,1.88,0,0,0,1.239,0,4.967,4.967,0,0,1,1.232-.171h.263l.055-.124c.046-.1.088-.139.25-.216.147-.07.207-.117.244-.2a.221.221,0,0,1,.179-.136c.8-.2.917-.254,1.129-.469A.524.524,0,0,1,84,99.7c.1.029.225-.149.226-.323,0-.147.033-.185.171-.2.269-.03.3-.218.093-.583a1.706,1.706,0,0,1-.143-.333c-.027-.106-.054-.147-.1-.157l-.327-.064a5.35,5.35,0,0,1-1.262-.426,5.11,5.11,0,0,0-1.677-.487.426.426,0,0,1-.323-.151c-.167-.157-.26-.208-.338-.183-.039.012-.107-.019-.207-.094a2.379,2.379,0,0,0-1.287-.423,4.94,4.94,0,0,1-.614-.139.67.67,0,0,0-.309-.06A.861.861,0,0,1,77.547,96c-.177-.056-.591-.164-.922-.24a5.515,5.515,0,0,1-1.308-.419,3.116,3.116,0,0,0-.592-.193,6.251,6.251,0,0,1-3.06-1.413l-.278-.262.154-.077a3.86,3.86,0,0,0,.534-.424,28.435,28.435,0,0,1,2.73-2.164c.446-.322,1.151-.835,1.567-1.139a8.251,8.251,0,0,1,.794-.545.06.06,0,0,0,.059-.024c.014-.023.032-.023.06,0a4.741,4.741,0,0,0,1.362-1.024,7.472,7.472,0,0,1,1.148-.889,1.591,1.591,0,0,0,.305-.234A7.474,7.474,0,0,1,81.672,85.6a13.241,13.241,0,0,0,1.36-.982c.314-.258.41-.323.443-.3.056.046.2-.093.2-.194,0-.06.036-.091.192-.167a2.415,2.415,0,0,0,.427-.3,2.759,2.759,0,0,1,.385-.289,3.681,3.681,0,0,0,.5-.426c.2-.189.625-.586.955-.88,1.851-1.652,2.624-2.64,2.944-3.761a.7.7,0,0,1,.245-.394c.233-.231.295-.387.414-1.05a2.54,2.54,0,0,1,.252-.928c.053-.1.1-.194.107-.206s-.029-.023-.077-.023c-.16,0-.178-.034-.2-.363s-.032-.358-.306-.84a.771.771,0,0,1-.117-.466c-.014-.309,0-.274-.3-.593-.117-.121-.222-.146-.288-.067-.035.042-.048.038-.119-.026a.814.814,0,0,0-.224-.126c-.151-.055-.322-.2-.237-.2a.562.562,0,0,0,.162-.059,1.1,1.1,0,0,1,.208-.079c.125-.027.106-.117-.027-.13-.088-.008-.095-.015-.062-.067.074-.117-.084-.148-.858-.172l-.589-.018-.017-.085c-.016-.082-.022-.084-.118-.053a3.977,3.977,0,0,1-.609.039,5.414,5.414,0,0,0-.608.03c-.092.022-.1.018-.1-.048v-.072H85.2a1.227,1.227,0,0,1-.823-.183l-.1-.074-.089.074a.655.655,0,0,1-.219.107c-.305.076-.454.193-.363.283.061.061.036.074-.125.067a5.246,5.246,0,0,0-1.69.813,1.2,1.2,0,0,1-.182.253,1.247,1.247,0,0,0-.18.244,1.166,1.166,0,0,1-.291.279c-.138.1-.4.316-.571.472A14.636,14.636,0,0,1,79.287,75.7a8.562,8.562,0,0,0-.729.605,2.126,2.126,0,0,1-.855.573,2.817,2.817,0,0,0-.6.517,5.555,5.555,0,0,1-.678.6,2.074,2.074,0,0,0-.306.233.3.3,0,0,1-.149.1.082.082,0,0,0-.075.061.083.083,0,0,1-.088.061.169.169,0,0,0-.12.069,3.446,3.446,0,0,1-.741.662,2.926,2.926,0,0,0-.734.636,4.974,4.974,0,0,1-1.044.754,2.424,2.424,0,0,0-.824.732,1.05,1.05,0,0,1-.179.224c-.157,0-.629.411-1.711,1.491a40.241,40.241,0,0,1-5.55,4.743c-.546.4-.605.432-.614.369s-.083-.119-.246-.229a7.475,7.475,0,0,1-1.637-1.517,18.36,18.36,0,0,0-1.5-1.7c-.343-.348-.623-.646-.623-.662,0-.037-.061-.024,1.185-.246a22.465,22.465,0,0,0,5.339-1.408c.1-.044.11-.043.178.03l.071.076.16-.136a5.342,5.342,0,0,1,1.591-.827,5.739,5.739,0,0,0,1.932-1.095c.232-.172.518-.379.636-.461a9.066,9.066,0,0,0,1.076-.927c.252-.239.589-.532.749-.65.264-.2.289-.224.277-.3-.015-.1.2-.224.352-.195.078.015.082.011.067-.082s.012-.129.241-.394a5.6,5.6,0,0,0,.423-.563c.092-.147.356-.555.586-.907A6.469,6.469,0,0,0,75.685,75a8.792,8.792,0,0,1,.608-1.2,2.352,2.352,0,0,0,.418-1.5c-.009-.353-.011-.366-.078-.375s-.069,0-.069.084-.039.124-.074.068a9.875,9.875,0,0,1,.006-1.451l.036-.061,0,.061c.022.507.082.655.294.727s.218.083.149-.456c-.018-.141-.014-.157.045-.172.082-.021.087-.177.017-.509a1.641,1.641,0,0,1-.04-.339c.007-.1-.013-.134-.14-.274a2.369,2.369,0,0,1-.483-.764,1.839,1.839,0,0,0-.859-1.067,15.389,15.389,0,0,0-4.37-1.729c-.542-.1-1.145-.228-2.106-.456a6.886,6.886,0,0,0-1.433-.23c-.195-.009-.409-.02-.477-.025s-.372,0-.677.013m9.955,4.935c0,.23-.141.169-.2-.086-.019-.085-.013-.1.05-.108.111-.018.148.031.148.193m-9.438.746a1.122,1.122,0,0,0,.828.092l.139-.042.019.247c.025.316.026,1.46,0,1.524-.012.03-.056.048-.119.048a.668.668,0,0,0-.211.046.682.682,0,0,1-.217.046c-.093,0-.115.016-.178.128a.64.64,0,0,1-.179.2c-.231.145-.255.174-.255.309v.127l-.318.168a13.956,13.956,0,0,0-2.12,1.4,10.805,10.805,0,0,1-2.333,1.422c-.2.08-.248.116-.281.193a.653.653,0,0,1-.852.306c-.114-.058-.113-.094.021-.493a7.577,7.577,0,0,1,1.178-2.114c.21-.258.216-.276.128-.407s-.079-.169.065-.4a7.96,7.96,0,0,0,.6-1.234,4.3,4.3,0,0,1,.921-1.53,2.969,2.969,0,0,1,.97.079c.97.173,1.349.138,1.6-.151.126-.144.124-.144.592.044m21.394,1.626c.011.017,0,.039-.03.049-.059.022-.092,0-.063-.048a.051.051,0,0,1,.094,0M82.895,99.418c.006.018-.017.04-.052.049s-.063,0-.063-.021c0-.079.09-.1.115-.027" transform="translate(-42.099 -65.334)" fill-rule="evenodd"/>
      </g>
    </g>
  </g>
</svg>
